:FULLY-SPECIFIED
:FORCE-ALL-JOINTS-BE-3DOF
:DEGREES
883
root 3.85195 16.5305 30.5312 -10.8246 23.6768 359.35
lfemur -15.8095 19.9983 -19.0116
ltibia 40.4913 0 0
lfoot -12.9326 0.0690648 0
ltoes -1.37978 0 0
rfemur -80.7132 -24.4467 36.5168
rtibia 101.126 0 0
rfoot 19.264 26.205 0
rtoes -8.14353 0 0
lowerback 15.0059 -4.01209 -6.64789
upperback 4.97444 -6.28636 -2.38034
thorax -2.64296 -3.11384 2.26165
lowerneck -7.71871 -3.24517 1.71638
upperneck 4.65939 -4.84264 4.94114
head 2.93726 -2.18998 1.06474
lclavicle -3.12092e-014 -4.77083e-015 0
lhumerus -33.0312 -40.5423 88.3441
lradius 60.5977 0 0
lwrist 19.6497 0 0
lhand 25.8347 11.8689 0
lfingers 7.12502 0 0
lthumb 49.9264 33.1302 0
rclavicle -3.12092e-014 -4.77083e-015 0
rhumerus -49.2556 -29.6742 -46.9493
rradius 72.2992 0 0
rwrist -23.3678 0 0
rhand -47.7649 -54.4874 0
rfingers 7.12502 0 0
rthumb -20.4424 -803.431 0
884
root 3.8436 16.5254 30.5931 -10.4641 23.7411 -0.596881
lfemur -16.1747 20.4531 -18.952
ltibia 40.9226 -0 0
lfoot -13.1773 0.64903 0.0466622
ltoes -1.59023 0 0
rfemur -79.7476 -25.0076 36.1981
rtibia 101.33 -0 0
rfoot 19.1199 25.4365 0.120787
rtoes -6.90415 0 0
lowerback 14.7526 -4.02026 -6.60402
upperback 4.86949 -6.27516 -2.40023
thorax -2.61641 -3.10839 2.2062
lowerneck -7.72906 -3.33967 1.60346
upperneck 4.57759 -4.95581 4.98122
head 2.92004 -2.24917 1.09207
lclavicle -3.12092e-014 -4.77083e-015 0
lhumerus -33.5149 -40.9439 89.1364
lradius 60.7147 -0 0
lwrist 19.4008 0 0
lhand 26.3319 12.1547 -0.0255209
lfingers 7.12502 -0 0
lthumb 50.3911 33.2467 -0.00341061
rclavicle -3.12092e-014 -4.77083e-015 0
rhumerus -48.5555 -29.2911 -48.4391
rradius 73.88 -0 0
rwrist -23.5256 0 0
rhand -46.9862 -53.787 0.554147
rfingers 7.12502 -0 0
rthumb -19.7116 -82.6338 0.575715
885
root 3.83713 16.5204 30.6554 -10.074 23.7949 -0.549116
lfemur -16.6461 20.9299 -18.9222
ltibia 41.4665 -0 0
lfoot -13.4152 1.19265 0.0921251
ltoes -1.62717 0 0
rfemur -78.3027 -25.5183 35.4602
rtibia 101.27 -0 0
rfoot 18.8507 24.2261 0.287489
rtoes -5.18702 0 0
lowerback 14.434 -4.00833 -6.53081
upperback 4.73588 -6.23036 -2.40427
thorax -2.58762 -3.08565 2.143
lowerneck -7.72963 -3.46408 1.46747
upperneck 4.50968 -5.1065 5.01289
head 2.90758 -2.32745 1.11886
lclavicle -3.12092e-014 -4.77083e-015 0
lhumerus -34.1346 -41.2523 90.0502
lradius 60.8154 -0 0
lwrist 19.1157 0 0
lhand 26.7474 12.4192 -0.0511895
lfingers 7.12502 -0 0
lthumb 50.7806 33.3788 -0.00601565
rclavicle -3.12092e-014 -4.77083e-015 0
rhumerus -47.7009 -28.5839 -50.3433
rradius 75.6341 -0 0
rwrist -23.5035 0 0
rhand -45.7248 -52.6826 1.27201
rfingers 7.12502 -0 0
rthumb -18.5143 -81.4224 1.3114
886
root 3.83217 16.5155 30.7181 -9.65703 23.8367 -0.505456
lfemur -17.2094 21.4212 -18.9181
ltibia 42.1056 -0 0
lfoot -13.6451 1.69524 0.135875
ltoes -1.50561 0 0
rfemur -76.4169 -25.9594 34.3328
rtibia 100.963 -0 0
rfoot 18.4645 22.6181 0.488482
rtoes -3.05189 0 0
lowerback 14.0558 -3.9776 -6.43112
upperback 4.57634 -6.1547 -2.39466
thorax -2.55659 -3.04709 2.07215
lowerneck -7.7211 -3.61472 1.3111
upperneck 4.45456 -5.29014 5.03695
head 2.89942 -2.4225 1.14511
lclavicle -3.12092e-014 -4.77083e-015 0
lhumerus -34.8753 -41.471 91.0707
lradius 60.9006 -0 0
lwrist 18.7993 0 0
lhand 27.0892 12.6652 -0.0760559
lfingers 7.12502 -0 0
lthumb 51.1021 33.5245 -0.00787369
rclavicle -3.12092e-014 -4.77083e-015 0
rhumerus -46.7418 -27.5627 -52.5914
rradius 77.5407 -0 0
rwrist -23.3169 0 0
rhand -44.0132 -51.1997 2.10989
rfingers 7.12502 -0 0
rthumb -16.8807 -79.8238 2.16338
